<?xml version="1.0" encoding="utf-8"?>
<!-- Svg Vector Icons : http://www.onlinewebfonts.com/icon -->
<!DOCTYPE svg PUBLIC "-//W3C//DTD SVG 1.1//EN" "http://www.w3.org/Graphics/SVG/1.1/DTD/svg11.dtd">
<svg version="1.1" xmlns="http://www.w3.org/2000/svg" xmlns:xlink="http://www.w3.org/1999/xlink" x="0px" y="0px" viewBox="0 0 1000 1000" enable-background="new 0 0 1000 1000" xml:space="preserve">
<metadata> Svg Vector Icons : http://www.onlinewebfonts.com/icon </metadata>
<g><g transform="translate(0.000000,511.000000) scale(0.100000,-0.100000)"><path d="M4864.4,4972.1c-159-95.8-156.6-86.5-170.6-979.5c-7-444.2-4.7-841.6,7-883.7c23.4-91.2,130.9-187,238.5-208.1c98.2-18.7,233.8,44.4,301.6,137.9c46.7,63.1,49.1,107.5,65.4,888.3c14,759.8,11.7,829.9-25.7,918.7C5210.4,5004.9,5014.1,5065.7,4864.4,4972.1z"/><path d="M1523.8,3637.3c-280.5-67.8-483.9-294.6-612.5-680.3c-339-1026.3-219.8-2559.8,289.9-3801.2c773.8-1877.2,2398.5-3032,4628.7-3291.5c399.7-46.8,1171.2-35.1,1493.8,23.4c502.6,91.1,832.2,224.4,1019.2,411.4c336.6,336.6,266.5,1028.6-201,1975.4C7494.4-414,6173.6,1124.2,4733.5,2246.4c-881.3,685-1711.2,1147.8-2400.8,1334.8C2084.9,3649,1685.1,3677.1,1523.8,3637.3z M2861,2716.2C4132.7,2290.8,6000.6,661.4,7057.2-947c102.9-158.9,266.5-444.2,362.3-638.2c388.1-783.1,385.7-1302.1-2.3-1451.7c-161.3-60.8-476.9-35.1-755.1,58.4C5182.4-2480.5,2942.8-371.9,2112.9,1304.2c-219.7,444.2-282.9,654.6-282.9,956.1c0,215.1,7,257.1,53.8,332c58.4,93.5,177.7,177.7,294.6,208.1C2321,2837.8,2603.9,2802.7,2861,2716.2z"/><path d="M3700.2,668.4c-161.3-51.4-329.6-166-420.8-289.9c-79.5-102.9-77.1-112.2,149.6-397.4c369.4-465.2,808.9-916.4,1274.1-1306.8c229.1-194.1,434.8-341.3,474.6-341.3c63.1,0,264.2,215.1,334.3,360c245.5,502.6,37.4,1180.5-507.3,1652.8c-156.6,133.2-497.9,308.6-680.3,346C4132.7,731.5,3859.2,722.2,3700.2,668.4z"/><path d="M8048.4,3571.8c-128.6-81.8-1199.2-1178.2-1215.6-1248.3c-39.7-156.6,70.1-346,222.1-378.7c161.3-35.1,194-9.3,804.2,593.8c317.9,315.6,596.1,607.8,612.5,649.9c42.1,98.2,42.1,156.6-7,257.1C8389.7,3602.2,8193.4,3663,8048.4,3571.8z"/><path d="M7943.2,383.2c-79.5-39.7-163.6-173-163.6-259.5c0-105.2,72.5-226.8,166-275.9c72.5-37.4,149.6-42.1,881.3-42.1c860.3,0,895.4,4.7,1005.2,121.5c114.6,123.9,79.5,348.3-70.1,439.5c-72.5,44.4-114.5,46.8-918.7,46.8C8216.7,413.6,7987.6,406.6,7943.2,383.2z"/><path d="M362-114.8c-72.5-219.7-159-598.5-208.1-904.7c-67.8-418.5-72.5-1180.5-9.3-1524.2c86.5-479.2,229.1-853.3,446.5-1178.2c130.9-194.1,418.5-479.2,605.5-598.4c804.2-512,1968.4-614.8,3284.5-289.9c460.5,114.6,455.9,107.5,128.6,196.4c-783.1,215.1-1608.4,628.9-2195.1,1096.4c-229.1,182.3-661.6,617.1-836.9,836.9C1089-1858.7,703.3-1089.6,476.5-276L399.4,2.1L362-114.8z"/></g></g>
</svg>